OpenSim_Sub01_CSBaseline_GRF.mot
version=1
nRows=34
nColumns=19
inDegrees=no
endheader
time	lFx	lFy	lFz	lCOPx	lCOPy	lCOPz	rFx	rFy	rFz	rCOPx	rCOPy	rCOPz	lMx	lMy	lMz	rMx	rMy	rMz
44.62000000	14.71332653	638.24450311	36.43964926	1.00670968	0	-0.59523420	0.02150594	0.31017213	-0.03899628	0.00168013	0	-0.00053476	0	4.01355306	0	0	0.00011208	0.00000000
44.63000000	17.60392645	638.03148124	35.72461539	1.00033376	0	-0.59534836	0.05487736	0.29643260	-0.02665430	0.00174702	0	-0.00059176	0	3.95575508	0	0	-0.00129095	-0.00000000
44.64000000	20.71039650	637.66720792	35.18437390	0.99366852	0	-0.59542204	0.05399882	0.19328827	0.01630080	-0.00102697	0	0.00021764	0	3.90226628	0	0	-0.00437383	0.00000000
44.65000000	23.87544421	636.88974300	34.66717860	0.98689716	0	-0.59553525	-0.01451745	-0.26877840	0.05037105	-0.00976586	0	0.00290962	0	3.84895374	0	0	-0.00848379	0.00000000
44.66000000	27.09100914	635.14825189	34.10909411	0.98005347	0	-0.59572826	-0.23407682	-1.32609798	0.05912643	-0.02597826	0	0.00807485	0	3.76421951	0	0	-0.00936573	-0.00000000
44.67000000	30.30601466	632.11979270	33.51808250	0.97309656	0	-0.59599149	-0.57364234	-2.78139353	0.03706871	-0.04243295	0	0.01366693	0	3.61608997	0	0	0.00352105	0.00000000
44.68000000	33.38925572	628.01210832	32.99610253	0.96615725	0	-0.59626179	-0.71703677	-3.29719987	-0.09637079	-0.03129011	0	0.01118638	0	3.42399291	0	0	0.04628415	0.00000000
44.69000000	36.14242164	623.34872836	32.70554993	0.95935430	0	-0.59646403	-0.02357424	0.74088458	-0.32979692	0.06518856	0	-0.01760575	0	3.19559147	0	0	0.12822543	0
44.70000000	38.61490201	618.23066181	32.58331929	0.95263775	0	-0.59652948	2.56313719	15.36200621	-0.58688264	0.31805124	0	-0.09627100	0	2.93069401	0	0	0.21672002	0
44.71000000	40.97407515	612.06311570	32.27942112	0.94588122	0	-0.59649251	7.44918316	45.83558755	-0.59130905	0.72574434	0	-0.22773559	0	2.66718754	0	0	0.17684527	0
44.72000000	43.39339400	603.79029322	31.46855099	0.93913283	0	-0.59642579	10.42128273	90.96355644	0.73619800	1.09255705	0	-0.35226097	0	2.47858874	0	0	-0.10527123	0.00000000
44.73000000	45.71178499	592.43796908	29.92506362	0.93267171	0	-0.59641101	6.78586524	143.44210620	4.49719382	1.28403973	0	-0.42066863	0	2.38002640	0	0	-0.31003478	-0.00000000
44.74000000	47.71204728	577.21063618	27.55704880	0.92647402	0	-0.59648592	-1.74716195	196.39827260	9.66527798	1.34088392	0	-0.44321381	0	2.34084401	0	0	-0.49221658	-0.00000000
44.75000000	49.25735125	557.51033655	24.36044125	0.92026544	0	-0.59658135	-11.65776764	245.60083698	13.91438074	1.33630771	0	-0.44347740	0	2.36940733	0	0	-0.61793042	0
44.76000000	50.24134302	533.16019404	20.31012924	0.91389376	0	-0.59669860	-21.07358070	288.31922582	15.09113499	1.31722223	0	-0.43763007	0	2.51846357	0	0	-0.58295198	0.00000000
44.77000000	50.49829718	504.44768085	15.58693050	0.90765697	0	-0.59693635	-28.96857928	323.41374266	12.35561714	1.30217633	0	-0.43248091	0	2.76087777	0	0	-0.36245411	-0.00000000
44.78000000	49.85734387	471.85923686	10.63083888	0.90141185	0	-0.59725802	-34.96575831	351.45740693	6.03105804	1.29375468	0	-0.42935673	0	3.01899832	0	0	-0.15248481	0
44.79000000	48.27030598	435.60741460	5.90665482	0.89492771	0	-0.59756561	-39.67591454	373.70537414	-2.11294862	1.28954869	0	-0.42756867	0	3.15391167	0	0	-0.10343336	-0.00000000
44.80000000	45.68688819	395.70962651	1.74172088	0.88823899	0	-0.59780745	-43.76928146	391.40231120	-9.69114730	1.28706579	0	-0.42636660	0	3.06800519	0	0	-0.24677973	-0.00000000
44.81000000	42.02147721	352.46399397	-1.75478413	0.88182703	0	-0.59810001	-47.12594730	406.05775376	-15.19843133	1.28480234	0	-0.42549749	0	2.74753897	0	0	-0.59734395	0.00000000
44.82000000	37.13969498	306.59177540	-4.51550401	0.87624165	0	-0.59878725	-49.99790755	420.09370947	-18.79524811	1.28173732	0	-0.42491305	0	2.17563912	0	0	-0.98156503	0
44.83000000	31.04187639	259.30376761	-6.49955693	0.87236083	0	-0.60065028	-52.89137682	436.15381630	-21.35892000	1.27751590	0	-0.42452803	0	1.29357540	0	0	-1.41395112	-0.00000000
44.84000000	23.82184017	212.54307785	-7.82043261	0.87155052	0	-0.60483441	-55.57911737	455.75613615	-22.76380619	1.27230218	0	-0.42428129	0	0.22952454	0	0	-1.86151112	0.00000000
44.85000000	15.71580750	168.50003205	-8.53871325	0.87535872	0	-0.61198193	-57.52600576	479.12563307	-22.74076298	1.26663425	0	-0.42420803	0	-0.92494274	0	0	-2.24810767	0
44.86000000	7.13717698	129.18650434	-8.62640434	0.88127549	0	-0.61990824	-58.51650392	505.82227291	-21.72971869	1.26079207	0	-0.42425019	0	-2.14499923	0	0	-2.55930481	0.00000000
44.87000000	-1.26427145	96.05591412	-8.20795881	0.87488954	0	-0.61894630	-58.70578287	534.27876055	-20.58476734	1.25492505	0	-0.42425380	0	-3.27396152	0	0	-2.81024608	-0.00000000
44.88000000	-8.47793936	69.20251577	-7.60092348	0.82598723	0	-0.58737899	-58.45810671	561.49987529	-20.39488110	1.24909626	0	-0.42409097	0	-3.99730850	0	0	-3.00526781	0.00000000
44.89000000	-13.57250214	47.61489031	-7.26305155	0.69580937	0	-0.49610490	-58.04191579	584.36288550	-22.05814608	1.24333755	0	-0.42372552	0	-3.95580271	0	0	-3.15930442	-0.00000000
44.90000000	-15.97325416	30.38609212	-7.46259662	0.47566156	0	-0.33803871	-57.55283347	601.45400735	-25.66093802	1.23763997	0	-0.42310444	0	-3.06476247	0	0	-3.28579301	-0.00000000
44.91000000	-15.60042043	16.99127356	-8.24228748	0.23452218	0	-0.16549925	-56.80990994	613.38093658	-30.70063815	1.23172165	0	-0.42227583	0	-1.74665497	0	0	-3.44413091	0.00000000
44.92000000	-13.00963936	7.16342120	-9.27472420	0.06572835	0	-0.04573486	-55.63824289	621.88508581	-36.36578356	1.22555594	0	-0.42137732	0	-0.62173266	0	0	-3.62254579	0.00000000
44.93000000	-10.27651830	1.47934164	-9.94916493	-0.00882628	0	0.00675195	-54.09989103	628.30671076	-41.57070063	1.21931215	0	-0.42052271	0	-0.04091371	0	0	-3.74358253	-0.00000000
44.94000000	-8.68530634	-0.55418102	-10.18043465	-0.02445401	0	0.01750797	-52.28047545	632.66603594	-45.24359426	1.21312021	0	-0.41978275	0	0.13095960	0	0	-3.78516051	0.00000000
44.95000000	-8.10400057	-0.71347612	-10.16033338	-0.01739907	0	0.01234283	-50.18195165	634.15803444	-46.96060022	1.20683657	0	-0.41922646	0	0.11643328	0	0	-3.73393010	0
